<svg width="21" height="24" viewBox="0 0 21 24" fill="none" xmlns="http://www.w3.org/2000/svg">
<path d="M9.275 19.075L5.13333 14.9333L6.825 13.2417L9.275 15.6917L14.175 10.7917L15.8667 12.4833L9.275 19.075ZM2.33333 23.3333C1.69167 23.3333 1.14236 23.1049 0.685417 22.6479C0.228472 22.191 0 21.6417 0 21V4.66667C0 4.025 0.228472 3.47569 0.685417 3.01875C1.14236 2.56181 1.69167 2.33333 2.33333 2.33333H3.5V0H5.83333V2.33333H15.1667V0H17.5V2.33333H18.6667C19.3083 2.33333 19.8576 2.56181 20.3146 3.01875C20.7715 3.47569 21 4.025 21 4.66667V21C21 21.6417 20.7715 22.191 20.3146 22.6479C19.8576 23.1049 19.3083 23.3333 18.6667 23.3333H2.33333ZM2.33333 21H18.6667V9.33333H2.33333V21ZM2.33333 7H18.6667V4.66667H2.33333V7Z" fill="#252B5A"/>
</svg>
