<svg width="22" height="25" viewBox="0 0 22 25" fill="none" xmlns="http://www.w3.org/2000/svg">
<path d="M13.9167 19.4987C13.1 19.4987 12.4097 19.2168 11.8458 18.6529C11.2819 18.089 11 17.3987 11 16.582C11 15.7654 11.2819 15.0751 11.8458 14.5112C12.4097 13.9473 13.1 13.6654 13.9167 13.6654C14.7333 13.6654 15.4236 13.9473 15.9875 14.5112C16.5514 15.0751 16.8333 15.7654 16.8333 16.582C16.8333 17.3987 16.5514 18.089 15.9875 18.6529C15.4236 19.2168 14.7333 19.4987 13.9167 19.4987ZM2.83333 24.1654C2.19167 24.1654 1.64236 23.9369 1.18542 23.4799C0.728472 23.023 0.5 22.4737 0.5 21.832V5.4987C0.5 4.85703 0.728472 4.30773 1.18542 3.85078C1.64236 3.39384 2.19167 3.16536 2.83333 3.16536H4V0.832031H6.33333V3.16536H15.6667V0.832031H18V3.16536H19.1667C19.8083 3.16536 20.3576 3.39384 20.8146 3.85078C21.2715 4.30773 21.5 4.85703 21.5 5.4987V21.832C21.5 22.4737 21.2715 23.023 20.8146 23.4799C20.3576 23.9369 19.8083 24.1654 19.1667 24.1654H2.83333ZM2.83333 21.832H19.1667V10.1654H2.83333V21.832ZM2.83333 7.83203H19.1667V5.4987H2.83333V7.83203Z" fill="#252B5A"/>
</svg>
