<svg width="24" height="24" viewBox="0 0 24 24" fill="none" xmlns="http://www.w3.org/2000/svg">
<path d="M23.3333 23.3333L18.6667 18.6667H7C6.35833 18.6667 5.80903 18.4382 5.35208 17.9813C4.89514 17.5243 4.66667 16.975 4.66667 16.3333V15.1667H17.5C18.1417 15.1667 18.691 14.9382 19.1479 14.4812C19.6049 14.0243 19.8333 13.475 19.8333 12.8333V4.66667H21C21.6417 4.66667 22.191 4.89514 22.6479 5.35208C23.1049 5.80903 23.3333 6.35833 23.3333 7V23.3333ZM2.33333 11.8708L3.70417 10.5H15.1667V2.33333H2.33333V11.8708ZM0 17.5V2.33333C0 1.69167 0.228472 1.14236 0.685417 0.685417C1.14236 0.228472 1.69167 0 2.33333 0H15.1667C15.8083 0 16.3576 0.228472 16.8146 0.685417C17.2715 1.14236 17.5 1.69167 17.5 2.33333V10.5C17.5 11.1417 17.2715 11.691 16.8146 12.1479C16.3576 12.6049 15.8083 12.8333 15.1667 12.8333H4.66667L0 17.5Z" fill="#252B5A"/>
</svg>
