<svg width="29" height="29" viewBox="0 0 29 29" fill="none" xmlns="http://www.w3.org/2000/svg">
<path d="M27.0767 14.7979C27.0767 13.8689 26.9933 12.9757 26.8385 12.1182H14.5V17.1858H21.5506C21.2469 18.8233 20.3239 20.2108 18.9364 21.1398V24.4269H23.1703C25.6475 22.1461 27.0767 18.7876 27.0767 14.7979Z" fill="#4285F4"/>
<path d="M14.5041 27.6008C18.0413 27.6008 21.0068 26.4277 23.1744 24.4269L18.9405 21.1398C17.7674 21.9258 16.2668 22.3903 14.5041 22.3903C11.092 22.3903 8.20389 20.0858 7.1737 16.9893H2.79688V20.3835C4.95253 24.6651 9.38295 27.6008 14.5041 27.6008Z" fill="#34A853"/>
<path d="M7.17651 16.9892C6.9145 16.2032 6.76563 15.3636 6.76563 14.5001C6.76563 13.6366 6.9145 12.797 7.17651 12.011V8.6167H2.79969C1.88264 10.4423 1.40544 12.4571 1.40625 14.5001C1.40625 16.6141 1.91241 18.6149 2.79969 20.3835L7.17651 16.9892Z" fill="#FBBC05"/>
<path d="M14.5041 6.60992C16.4276 6.60992 18.1545 7.27091 19.5122 8.56907L23.2697 4.81155C21.0009 2.69757 18.0354 1.39941 14.5041 1.39941C9.38295 1.39941 4.95253 4.33516 2.79688 8.61671L7.1737 12.011C8.20389 8.91445 11.092 6.60992 14.5041 6.60992Z" fill="#EA4335"/>
</svg>
