<svg width="27" height="25" viewBox="0 0 27 25" fill="none" xmlns="http://www.w3.org/2000/svg">
<path d="M23.1 24.7625L19.0458 20.7083V20.9125H0.379167V17.6458C0.379167 16.9847 0.549305 16.3771 0.889583 15.8229C1.22986 15.2687 1.68194 14.8458 2.24583 14.5542C3.45139 13.9514 4.67639 13.4993 5.92083 13.1979C7.16528 12.8965 8.42917 12.7458 9.7125 12.7458C9.94583 12.7458 10.184 12.7507 10.4271 12.7604C10.6701 12.7701 10.9083 12.7847 11.1417 12.8042L9.91667 11.5792H9.7125C8.42917 11.5792 7.33056 11.1222 6.41667 10.2083C5.50278 9.29444 5.04583 8.19583 5.04583 6.9125V6.70833L0 1.6625L1.6625 0L24.7625 23.1L23.1 24.7625ZM18.6375 12.9208C19.6292 13.0375 20.5625 13.2368 21.4375 13.5188C22.3125 13.8007 23.1292 14.1458 23.8875 14.5542C24.5875 14.9431 25.1222 15.3757 25.4917 15.8521C25.8611 16.3285 26.0458 16.8486 26.0458 17.4125V20.9125H25.9L21.2333 16.2458C21.0583 15.6042 20.7521 14.9965 20.3146 14.4229C19.8771 13.8493 19.3181 13.3486 18.6375 12.9208ZM9.7125 15.0792C8.62361 15.0792 7.54444 15.2104 6.475 15.4729C5.40556 15.7354 4.34583 16.1292 3.29583 16.6542C3.12083 16.7514 2.97986 16.8875 2.87292 17.0625C2.76597 17.2375 2.7125 17.4319 2.7125 17.6458V18.5792H16.7125V18.375L14.175 15.8375C13.4361 15.5847 12.6924 15.3951 11.9437 15.2688C11.1951 15.1424 10.4514 15.0792 9.7125 15.0792ZM15.6042 10.6167C15.9736 10.0722 16.2507 9.48889 16.4354 8.86667C16.6201 8.24444 16.7125 7.59306 16.7125 6.9125C16.7125 6.09583 16.5715 5.30833 16.2896 4.55C16.0076 3.79167 15.6042 3.10139 15.0792 2.47917C15.3514 2.38194 15.6236 2.31875 15.8958 2.28958C16.1681 2.26042 16.4403 2.24583 16.7125 2.24583C17.9958 2.24583 19.0944 2.70278 20.0083 3.61667C20.9222 4.53056 21.3792 5.62917 21.3792 6.9125C21.3792 8.19583 20.8979 9.29444 19.9354 10.2083C18.9729 11.1222 17.85 11.5792 16.5667 11.5792L15.6042 10.6167ZM13.9125 8.925L12.0458 7.05833V6.9125C12.0458 6.27083 11.8174 5.72153 11.3604 5.26458C10.9035 4.80764 10.3542 4.57917 9.7125 4.57917H9.56667L7.7 2.7125C8.01111 2.55694 8.33194 2.44028 8.6625 2.3625C8.99306 2.28472 9.34305 2.24583 9.7125 2.24583C10.9958 2.24583 12.0944 2.70278 13.0083 3.61667C13.9222 4.53056 14.3792 5.62917 14.3792 6.9125C14.3792 7.28194 14.3403 7.63194 14.2625 7.9625C14.1847 8.29306 14.0681 8.61389 13.9125 8.925Z" fill="#252B5A"/>
</svg>
