<svg width="128" height="128" viewBox="0 0 128 128" fill="none" xmlns="http://www.w3.org/2000/svg">
<path d="M64 73.0714C98.925 73.0714 127.5 95.75 127.5 113.893C127.5 117.502 126.066 120.963 123.515 123.515C120.963 126.066 117.502 127.5 113.893 127.5H14.1071C10.4983 127.5 7.03727 126.066 4.48544 123.515C1.93361 120.963 0.5 117.502 0.5 113.893C0.5 95.75 29.075 73.0714 64 73.0714ZM64 0.5C72.4206 0.5 80.4964 3.84508 86.4506 9.79936C92.4049 15.7536 95.75 23.8294 95.75 32.25C95.75 40.6706 92.4049 48.7464 86.4506 54.7006C80.4964 60.6549 72.4206 64 64 64C55.5794 64 47.5036 60.6549 41.5494 54.7006C35.5951 48.7464 32.25 40.6706 32.25 32.25C32.25 23.8294 35.5951 15.7536 41.5494 9.79936C47.5036 3.84508 55.5794 0.5 64 0.5Z" fill="#252B5A"/>
</svg>
