<svg width="25" height="26" viewBox="0 0 25 26" fill="none" xmlns="http://www.w3.org/2000/svg">
<path d="M10.7071 0.5V14.9577H14.2929V0.5H10.7071ZM3.66058 4.16058C1.39852 6.42265 0 9.54821 0 13C0 19.9036 5.59644 25.5 12.5 25.5C19.4036 25.5 25 19.9036 25 13C25 9.54821 23.6015 6.42265 21.3394 4.16058L18.8217 6.67829C20.4396 8.29617 21.4401 10.5315 21.4401 13C21.4401 17.9371 17.4371 21.9401 12.5 21.9401C7.5629 21.9401 3.55988 17.9371 3.55988 13C3.55988 10.5315 4.5604 8.29617 6.17829 6.67829L3.66058 4.16058Z" fill="#252B5A"/>
</svg>
