<svg width="53" height="36" viewBox="0 0 53 36" fill="none" xmlns="http://www.w3.org/2000/svg">
<path d="M0.25 32.5833C0.25 34.1942 1.55584 35.5 3.16667 35.5H49.8333C51.4442 35.5 52.75 34.1942 52.75 32.5833C52.75 30.9725 51.4442 29.6667 49.8333 29.6667H3.16667C1.55584 29.6667 0.25 30.9725 0.25 32.5833ZM0.25 18C0.25 19.6108 1.55584 20.9167 3.16667 20.9167H49.8333C51.4442 20.9167 52.75 19.6108 52.75 18C52.75 16.3892 51.4442 15.0833 49.8333 15.0833H3.16667C1.55584 15.0833 0.25 16.3892 0.25 18ZM3.16667 0.5C1.55584 0.5 0.25 1.80584 0.25 3.41667C0.25 5.0275 1.55584 6.33333 3.16667 6.33333H49.8333C51.4442 6.33333 52.75 5.0275 52.75 3.41667C52.75 1.80584 51.4442 0.5 49.8333 0.5H3.16667Z" fill="white"/>
</svg>
