<svg width="20" height="25" viewBox="0 0 20 25" fill="none" xmlns="http://www.w3.org/2000/svg">
<path d="M0.667969 20.6673V18.334H3.0013V10.1673C3.0013 8.55343 3.48741 7.1194 4.45964 5.86523C5.43186 4.61107 6.69575 3.78954 8.2513 3.40065V2.58398C8.2513 2.09787 8.42144 1.68468 8.76172 1.3444C9.102 1.00412 9.51519 0.833984 10.0013 0.833984C10.4874 0.833984 10.9006 1.00412 11.2409 1.3444C11.5812 1.68468 11.7513 2.09787 11.7513 2.58398V3.40065C13.3069 3.78954 14.5707 4.61107 15.543 5.86523C16.5152 7.1194 17.0013 8.55343 17.0013 10.1673V18.334H19.3346V20.6673H0.667969ZM10.0013 24.1673C9.35964 24.1673 8.81033 23.9388 8.35339 23.4819C7.89644 23.025 7.66797 22.4757 7.66797 21.834H12.3346C12.3346 22.4757 12.1062 23.025 11.6492 23.4819C11.1923 23.9388 10.643 24.1673 10.0013 24.1673ZM5.33464 18.334H14.668V10.1673C14.668 8.88398 14.211 7.78537 13.2971 6.87149C12.3832 5.9576 11.2846 5.50065 10.0013 5.50065C8.71797 5.50065 7.61936 5.9576 6.70547 6.87149C5.79158 7.78537 5.33464 8.88398 5.33464 10.1673V18.334Z" fill="#252B5A"/>
</svg>
