<svg width="20" height="19" viewBox="0 0 20 19" fill="none" xmlns="http://www.w3.org/2000/svg">
<path d="M9.83333 9.49935C8.55 9.49935 7.45139 9.0424 6.5375 8.12852C5.62361 7.21463 5.16667 6.11602 5.16667 4.83268C5.16667 3.54935 5.62361 2.45074 6.5375 1.53685C7.45139 0.62296 8.55 0.166016 9.83333 0.166016C11.1167 0.166016 12.2153 0.62296 13.1292 1.53685C14.0431 2.45074 14.5 3.54935 14.5 4.83268C14.5 6.11602 14.0431 7.21463 13.1292 8.12852C12.2153 9.0424 11.1167 9.49935 9.83333 9.49935ZM0.5 18.8327V15.566C0.5 14.9049 0.670139 14.2973 1.01042 13.7431C1.35069 13.1889 1.80278 12.766 2.36667 12.4743C3.57222 11.8716 4.79722 11.4195 6.04167 11.1181C7.28611 10.8167 8.55 10.666 9.83333 10.666C11.1167 10.666 12.3806 10.8167 13.625 11.1181C14.8694 11.4195 16.0944 11.8716 17.3 12.4743C17.8639 12.766 18.316 13.1889 18.6562 13.7431C18.9965 14.2973 19.1667 14.9049 19.1667 15.566V18.8327H0.5Z" fill="#252B5A"/>
</svg>
