<svg width="29" height="30" viewBox="0 0 29 30" fill="none" xmlns="http://www.w3.org/2000/svg">
<path d="M14.5 24.7222V5.27778M14.5 24.7222L11.6569 27.5M14.5 24.7222L17.3431 27.5M14.5 5.27778L11.6569 2.5M14.5 5.27778L17.3431 2.5M5.88333 19.8611L23.1167 10.1389M5.88333 19.8611L2 18.8444M5.88333 19.8611L4.84167 23.6556M23.1167 10.1389L24.1569 6.34444M23.1167 10.1389L27 11.1556M5.88333 10.1389L23.1167 19.8611M5.88333 10.1389L4.84306 6.34444M5.88333 10.1389L2 11.1556M23.1167 19.8611L27 18.8444M23.1167 19.8611L24.1583 23.6556" stroke="#597EDB" stroke-width="4" stroke-linecap="round" stroke-linejoin="round"/>
</svg>
